<?xml version="1.0" encoding="UTF-8" standalone="no"?>
<!-- Created with Inkscape (http://www.inkscape.org/) -->

<svg
   width="500"
   height="500"
   viewBox="0 0 500 500"
   version="1.1"
   id="svg1"
   xml:space="preserve"
   inkscape:version="1.3 (0e150ed6c4, 2023-07-21)"
   sodipodi:docname="logo.svg"
   xmlns:inkscape="http://www.inkscape.org/namespaces/inkscape"
   xmlns:sodipodi="http://sodipodi.sourceforge.net/DTD/sodipodi-0.dtd"
   xmlns="http://www.w3.org/2000/svg"
   xmlns:svg="http://www.w3.org/2000/svg"><sodipodi:namedview
     id="namedview1"
     pagecolor="#535353"
     bordercolor="#ffffff"
     borderopacity="1"
     inkscape:showpageshadow="0"
     inkscape:pageopacity="0"
     inkscape:pagecheckerboard="false"
     inkscape:deskcolor="#505050"
     inkscape:document-units="px"
     inkscape:zoom="1.2439842"
     inkscape:cx="261.65928"
     inkscape:cy="275.72699"
     inkscape:window-width="1920"
     inkscape:window-height="1017"
     inkscape:window-x="1912"
     inkscape:window-y="-8"
     inkscape:window-maximized="1"
     inkscape:current-layer="layer2"
     showgrid="false" /><defs
     id="defs1" /><g
     inkscape:groupmode="layer"
     id="layer2"
     inkscape:label="Layer 2"
     transform="matrix(1.1088948,0,0,1.1088948,-27.070268,-26.611845)"
     style="stroke-width:0.901799"><path
       d="m 167.4916,69.134782 c -4.81326,9.4e-5 -44.61893,1.438153 -48.83594,48.835938 v 86.79492 H 215.8334 V 124.22072 C 219.89417,95.981865 197.52659,69.141563 167.49157,69.134752 Z"
       style="fill:#0b2b5b;fill-opacity:1;stroke:none;stroke-width:2.7054;stroke-linecap:square"
       id="path5"
       sodipodi:nodetypes="ccccccc" /><rect
       style="fill:#4889ea;fill-opacity:1;stroke:none;stroke-width:2.70539;stroke-linecap:square"
       id="rect23"
       width="51.17218"
       height="94.367981"
       x="141.52257"
       y="91.380318"
       ry="23.073505"
       rx="23.073505" /><path
       d="m 329.2748,69.013692 c -26.94554,5.27e-4 -48.83551,21.890769 -48.83593,48.835928 0.03,2.09172 0.19443,4.17937 0.49218,6.25 v 80.54493 h 97.17774 v -86.79493 c -0.006,-26.952492 -21.87724,-48.829845 -48.83402,-48.835958 z"
       style="fill:#0b2b5b;fill-opacity:1;stroke:none;stroke-width:2.7054;stroke-linecap:square"
       id="path6"
       sodipodi:nodetypes="scccccss" /><rect
       style="fill:#4889ea;fill-opacity:1;stroke:none;stroke-width:2.70539;stroke-linecap:square"
       id="rect24"
       width="51.17218"
       height="94.367981"
       x="303.12454"
       y="91.380318"
       ry="23.073505"
       rx="23.073505" /><path
       d="m 249.93691,114.09962 c -74.18846,8e-5 -113.85127,52.09265 -122.95898,65.72266 -5.38166,8.05395 -9.95902,16.61729 -13.66602,25.56641 -7.88796,20.22077 -4.36329,22.63024 -14.644473,37.65623 -13.738662,18.90979 -38.3827,27.90034 -61.634771,20.64453 68.331954,110.22848 186.941634,116.09888 211.457044,116.09765 120.23262,0.006 194.96348,-85.68042 211.6914,-116.52539 -22.39687,6.39665 -39.87926,-3.80879 -46.50195,-8.62109 -17.69457,-11.68262 -19.95661,-31.29458 -27.11915,-49.25195 -3.28472,-7.92926 -7.7276,-16.67661 -13.66601,-25.56641 -11.38698,-17.03995 -50.2813,-65.72424 -122.95704,-65.72266 z"
       style="fill:#0b2b5b;fill-opacity:1;stroke:#0b2b5b;stroke-width:3.69738;stroke-linecap:square;stroke-linejoin:round;stroke-dasharray:none;stroke-opacity:1"
       id="path4"
       sodipodi:nodetypes="scccccccccss" /><path
       id="path10"
       style="fill:#4889ea;fill-opacity:1;stroke:none;stroke-width:2.70539;stroke-linecap:square"
       d="m 208.38714,374.03416 -13.44336,22.43164 12.70508,22.85743 26.14648,0.42578 13.44336,-22.42969 -12.70508,-22.85742 z" /><path
       id="path10-7"
       style="fill:#4889ea;fill-opacity:1;stroke:none;stroke-width:2.70539;stroke-linecap:square"
       d="m 262.57187,373.11684 -13.44336,22.43164 12.70508,22.85743 26.14648,0.42578 13.44336,-22.42969 -12.70508,-22.85742 z" /><rect
       style="fill:#104089;fill-opacity:1;stroke:none;stroke-width:2.70539;stroke-linecap:square"
       id="rect9"
       width="30.948948"
       height="15.876408"
       x="233.48648"
       y="389.26755" /><path
       d="m 214.19277,260.04494 c -0.65201,1.20303 -15.47268,28.84138 -15.47268,54.46289 0,27.77066 33.0321,59.48632 49.8398,59.48632 18.28934,0 49.83985,-33.31864 49.83985,-59.48632 0,-24.68313 -13.78658,-51.34837 -15.47458,-54.46289 z"
       style="fill:#4889ea;fill-opacity:1;stroke:none;stroke-width:2.70539;stroke-linecap:square"
       id="path18"
       sodipodi:nodetypes="cssscc" /><path
       d="m 272.27285,305.06251 h -48.63281 c -0.004,17.44552 13.31828,29.21974 24.31641,31.5586 11.01439,-2.34233 24.31993,-14.13004 24.3164,-31.5586 z"
       style="fill:#104089;fill-opacity:1;stroke:none;stroke-width:2.70539;stroke-linecap:square"
       id="path12"
       sodipodi:nodetypes="cccc" /><path
       d="m 310.00332,181.67189 c -25.06765,0.2382 -39.37554,25.59542 -62.2832,31.44138 -22.27541,-6.52123 -36.58445,-30.93542 -61.25977,-31.24415 -28.16551,0.44837 -48.84635,23.02703 -65.49456,43.18996 -13.62107,18.28131 -29.623833,34.75222 -48.621693,47.49575 -5.38126,3.87905 -16.20334,8.3581 -3.42476,9.65414 19.67841,6.63441 41.635343,4.51559 59.610553,-4.73217 8.47419,-7.17234 14.5317,-11.92211 23.66912,-12.55455 23.37176,-4.5346 46.68833,-9.64846 70.09448,-13.82225 18.14157,0.44986 36.36424,-0.56321 54.45534,0.0988 25.54316,5.11667 51.08633,10.23335 76.62949,15.35002 17.8703,18.85834 44.80198,23.258 69.14258,16.73628 5.66781,-1.42969 17.86068,-3.25787 6.48864,-7.53991 -29.22107,-12.41166 -38.11041,-29.94347 -52.39598,-49.51815 -16.96846,-20.52993 -37.75522,-44.16015 -66.61024,-44.55519 z"
       style="fill:#4889ea;fill-opacity:1;stroke:none;stroke-width:2.70539;stroke-linecap:square"
       id="path15"
       sodipodi:nodetypes="scccccccccccccss" /><path
       d="m 180.59121,210.45119 c -2.6617,-4.7e-4 -5.31707,0.26056 -7.92773,0.77929 -2.61126,0.51922 -5.16524,1.29379 -7.625,2.3125 -2.4598,1.01875 -4.81359,2.27677 -7.02735,3.75586 -2.2133,1.47914 -4.27598,3.17219 -6.1582,5.05469 -1.8826,1.88284 -3.57566,3.94617 -5.05469,6.16016 -1.47898,2.21313 -2.737,4.56627 -3.75586,7.02539 -1.01871,2.45976 -1.79328,5.01374 -2.3125,7.625 -0.51939,2.61059 -0.78107,5.26597 -0.78125,7.92773 6e-5,2.66242 0.26173,5.31845 0.78125,7.92969 0.51934,2.61059 1.29391,5.16391 2.3125,7.62305 1.01875,2.45979 2.27677,4.81359 3.75586,7.02734 1.47914,2.2133 3.17219,4.27598 5.05469,6.1582 1.88222,1.8825 3.9449,3.57556 6.1582,5.05469 2.21376,1.4791 4.56755,2.73711 7.02735,3.75586 2.45976,1.01871 5.01374,1.79328 7.625,2.3125 2.61059,0.51939 5.26597,0.78107 7.92773,0.78125 2.66242,-5e-5 5.31845,-0.26173 7.92969,-0.78125 2.61059,-0.51934 5.16391,-1.29391 7.62305,-2.3125 2.45979,-1.01875 4.81359,-2.27676 7.02734,-3.75586 2.2133,-1.47913 4.27598,-3.17219 6.1582,-5.05469 1.8825,-1.88222 3.57556,-3.9449 5.05469,-6.1582 1.4791,-2.21375 2.73711,-4.56755 3.75586,-7.02734 0.85309,-2.13916 1.52283,-4.34701 2.00195,-6.59961 h 55.79688 c 0.49677,2.40194 1.20997,4.754 2.13086,7.02734 1.01886,2.45914 2.27686,4.81224 3.75586,7.02539 1.47904,2.214 3.17207,4.27731 5.05468,6.16016 1.88233,1.88183 3.94498,3.5742 6.15821,5.05273 2.21314,1.47899 4.56625,2.73699 7.02539,3.75586 2.45978,1.01872 5.01373,1.79328 7.625,2.3125 2.61125,0.51952 5.26725,0.7812 7.92968,0.78125 2.66179,-1.8e-4 5.31713,-0.26186 7.92774,-0.78125 2.61127,-0.51922 5.16522,-1.29378 7.625,-2.3125 2.45914,-1.01887 4.81224,-2.27687 7.02539,-3.75586 2.21391,-1.47842 4.27721,-3.1708 6.16016,-5.05273 1.88193,-1.88294 3.57431,-3.94625 5.05273,-6.16016 1.47899,-2.21315 2.73699,-4.56625 3.75586,-7.02539 1.01939,-2.45971 1.7946,-5.01366 2.31445,-7.625 0.51874,-2.61068 0.77976,-5.26602 0.7793,-7.92773 3.3e-4,-0.92528 -0.0309,-1.8503 -0.0937,-2.77344 -0.0629,-0.92353 -0.15738,-1.84464 -0.2832,-2.76172 -0.12638,-0.91657 -0.28403,-1.82856 -0.47266,-2.73438 -0.18797,-0.90629 -0.40685,-1.80591 -0.65625,-2.69726 -0.24977,-0.89081 -0.52988,-1.77284 -0.83984,-2.64453 -0.3097,-0.87201 -0.64909,-1.73319 -1.01758,-2.58203 -0.36914,-0.84863 -0.76716,-1.68441 -1.19336,-2.50586 -0.42548,-0.82122 -0.87887,-1.62769 -1.35938,-2.41797 -0.4806,-0.79053 -0.98806,-1.56442 -1.52148,-2.32031 -0.53387,-0.75653 -1.09345,-1.49459 -1.67773,-2.2129 -0.58408,-0.71782 -1.19251,-1.4155 -1.82422,-2.09179 -0.63115,-0.67576 -1.28518,-1.32979 -1.96094,-1.96094 -0.67629,-0.63171 -1.37397,-1.24014 -2.0918,-1.82422 -0.71766,-0.58425 -1.45507,-1.14382 -2.21094,-1.67773 -0.75653,-0.53346 -1.53107,-1.04092 -2.32226,-1.52149 -0.79029,-0.4805 -1.59675,-0.93389 -2.41797,-1.35937 -0.82148,-0.42554 -1.65726,-0.82291 -2.50586,-1.19141 -0.84881,-0.36914 -1.71,-0.70919 -2.58203,-1.01953 -0.87169,-0.30996 -1.75372,-0.59008 -2.64453,-0.83984 -0.89135,-0.2494 -1.79097,-0.46828 -2.69727,-0.65625 -0.90583,-0.18798 -1.81782,-0.34497 -2.73437,-0.47071 -0.91641,-0.12643 -1.83687,-0.22154 -2.75977,-0.28515 -0.92314,-0.0628 -1.84816,-0.0941 -2.77344,-0.0937 -2.66243,5e-5 -5.31843,0.26173 -7.92968,0.78125 -2.61127,0.51922 -5.16522,1.29378 -7.625,2.3125 -2.45914,1.01886 -4.81225,2.27686 -7.02539,3.75586 -2.21332,1.47914 -4.27597,3.17218 -6.15821,5.05468 -1.88251,1.88224 -3.57554,3.94489 -5.05468,6.15821 -1.479,2.21314 -2.737,4.56625 -3.75586,7.02539 -0.47867,1.32547 -0.88808,2.67496 -1.22657,4.04297 h -57.15429 c -0.24006,-0.85029 -0.50778,-1.69255 -0.80274,-2.52539 -0.30969,-0.87201 -0.64909,-1.7332 -1.01758,-2.58204 -0.36849,-0.84859 -0.76586,-1.68438 -1.1914,-2.50585 -0.42544,-0.82188 -0.87884,-1.629 -1.35938,-2.41993 -0.48124,-0.79055 -0.98935,-1.56445 -1.52343,-2.32031 -0.53327,-0.75583 -1.0922,-1.49325 -1.67579,-2.21094 -0.58407,-0.71782 -1.19251,-1.41551 -1.82421,-2.09179 -0.63175,-0.67646 -1.28644,-1.33114 -1.96289,-1.96289 -0.67632,-0.63105 -1.37401,-1.23883 -2.0918,-1.82227 -0.71766,-0.58425 -1.45508,-1.14383 -2.21094,-1.67773 -0.75589,-0.53342 -1.52979,-1.04089 -2.32031,-1.52149 -0.7909,-0.4812 -1.59802,-0.93525 -2.41992,-1.36133 -0.82148,-0.42553 -1.65727,-0.82291 -2.50586,-1.1914 -0.84819,-0.36845 -1.70874,-0.70784 -2.58008,-1.01758 -0.87233,-0.31001 -1.75502,-0.59012 -2.64649,-0.83984 -0.8907,-0.24936 -1.78967,-0.46824 -2.69531,-0.65625 -0.9058,-0.18863 -1.81781,-0.34628 -2.73437,-0.47266 -0.91707,-0.12582 -1.8382,-0.22028 -2.76172,-0.2832 -0.92314,-0.0628 -1.84817,-0.0941 -2.77344,-0.0937 z"
       style="fill:#05152e;fill-opacity:1;stroke:none;stroke-width:2.70539;stroke-linecap:square"
       id="path19" /><path
       d="m 176.71816,216.18556 a 35.416958,35.416958 0 0 0 -0.91992,0.0664 35.416958,35.416958 0 0 0 -4.9375,1.07422 35.416958,35.416958 0 0 0 -4.73437,1.76562 35.416958,35.416958 0 0 0 -0.17188,0.0937 v 64.24609 a 35.416958,35.416958 0 0 0 0.17188,0.0937 35.416958,35.416958 0 0 0 4.73437,1.76563 35.416958,35.416958 0 0 0 4.9375,1.07422 35.416958,35.416958 0 0 0 0.91992,0.0664 z"
       style="fill:#104089;fill-opacity:1;stroke:none;stroke-width:2.70539;stroke-linecap:square"
       id="path9" /><path
       d="m 180.83926,215.89064 v 70.83398 a 35.416958,35.416958 0 0 0 5.03906,-0.35937 35.416958,35.416958 0 0 0 1.10742,-0.24024 v -69.68554 a 35.416958,35.416958 0 0 0 -0.7832,-0.14063 35.416958,35.416958 0 0 0 -1.78125,-0.22656 35.416958,35.416958 0 0 0 -1.78906,-0.13477 35.416958,35.416958 0 0 0 -1.79297,-0.0469 z"
       style="fill:#104089;fill-opacity:1;stroke:none;stroke-width:2.70539;stroke-linecap:square"
       id="path8" /></g></svg>
