<?xml version="1.0" encoding="UTF-8" standalone="no"?>
<!-- Created with Inkscape (http://www.inkscape.org/) -->

<svg
   width="500"
   height="500"
   viewBox="0 0 500 500"
   version="1.1"
   id="svg1"
   xml:space="preserve"
   inkscape:version="1.3 (0e150ed6c4, 2023-07-21)"
   sodipodi:docname="logo_hole_org.svg"
   inkscape:export-filename="logo_hole.png"
   inkscape:export-xdpi="96"
   inkscape:export-ydpi="96"
   xmlns:inkscape="http://www.inkscape.org/namespaces/inkscape"
   xmlns:sodipodi="http://sodipodi.sourceforge.net/DTD/sodipodi-0.dtd"
   xmlns="http://www.w3.org/2000/svg"
   xmlns:svg="http://www.w3.org/2000/svg"><sodipodi:namedview
     id="namedview1"
     pagecolor="#535353"
     bordercolor="#ffffff"
     borderopacity="1"
     inkscape:showpageshadow="0"
     inkscape:pageopacity="0"
     inkscape:pagecheckerboard="false"
     inkscape:deskcolor="#505050"
     inkscape:document-units="px"
     inkscape:zoom="1.4142136"
     inkscape:cx="248.54803"
     inkscape:cy="252.43712"
     inkscape:window-width="1920"
     inkscape:window-height="1017"
     inkscape:window-x="1912"
     inkscape:window-y="-8"
     inkscape:window-maximized="1"
     inkscape:current-layer="layer2"
     showgrid="false" /><defs
     id="defs1"><clipPath
       clipPathUnits="userSpaceOnUse"
       id="clipPath3"><g
         inkscape:label="Clip"
         id="use3" /></clipPath></defs><g
     inkscape:groupmode="layer"
     id="layer2"
     inkscape:label="Layer 2"
     transform="matrix(1.1088948,0,0,1.1088948,-27.070268,-26.611845)"
     style="stroke-width:0.901799"><path
       d="m 167.4916,69.134782 c -4.81326,9.4e-5 -44.61893,1.438153 -48.83594,48.835938 v 86.79492 H 215.8334 V 124.22072 C 219.89417,95.981865 197.52659,69.141563 167.49157,69.134752 Z"
       style="stroke-width:2.7054;fill:#0b2b5b;fill-opacity:1;stroke:none;stroke-linecap:square"
       id="path5"
       sodipodi:nodetypes="ccccccc"
       inkscape:label="earright_outer" /><path
       id="rect23"
       style="stroke-width:2.70539;fill:#4889ea;stroke-linecap:square"
       d="m 164.59607,91.380318 h 5.02517 c 12.78272,0 23.07351,10.290782 23.07351,23.073502 v 48.22097 c 0,12.78273 -10.29079,23.07351 -23.07351,23.07351 h -5.02517 c -12.78272,0 -23.0735,-10.29078 -23.0735,-23.07351 v -48.22097 c 0,-12.78272 10.29078,-23.073502 23.0735,-23.073502 z"
       inkscape:label="earright_inner" /><path
       d="m 329.2748,69.013692 c -26.94554,5.27e-4 -48.83551,21.890769 -48.83593,48.835928 0.03,2.09172 0.19443,4.17937 0.49218,6.25 v 80.54493 h 97.17774 v -86.79493 c -0.006,-26.952492 -21.87724,-48.829845 -48.83402,-48.835958 z"
       style="stroke-width:2.7054;fill:#0b2b5b;fill-opacity:1;stroke:none;stroke-linecap:square"
       id="path6"
       sodipodi:nodetypes="scccccss"
       inkscape:label="earleft_outer" /><path
       id="rect24"
       style="stroke-width:2.70539;fill:#4889ea;stroke-linecap:square"
       d="m 326.19805,91.380318 h 5.02517 c 12.78272,0 23.0735,10.290782 23.0735,23.073502 v 48.22097 c 0,12.78273 -10.29078,23.07351 -23.0735,23.07351 h -5.02517 c -12.78272,0 -23.07351,-10.29078 -23.07351,-23.07351 v -48.22097 c 0,-12.78272 10.29079,-23.073502 23.07351,-23.073502 z"
       inkscape:label="earleft_inner" /><path
       id="path11"
       style="stroke-width:0.901799;color:#000000;fill:#0b2b5b;stroke-linecap:square;stroke-linejoin:round;-inkscape-stroke:none"
       inkscape:label="body"
       d="M 249.93737 112.24976 C 174.88375 112.24984 134.71784 164.91215 125.44158 178.79441 C 119.99266 186.94902 115.35616 195.6214 111.60285 204.68237 A 1.8488749 1.8488749 0 0 0 111.59052 204.7176 C 107.60363 214.93797 106.46599 220.76769 105.10531 225.67033 C 103.74667 230.56569 102.19918 234.60222 97.158213 241.97492 C 83.871327 260.24803 60.059073 268.93731 37.583129 261.9237 A 1.8488749 1.8488749 0 0 0 35.460732 264.66432 C 104.28178 375.6817 223.67882 381.63873 248.48956 381.63749 C 309.04488 381.64049 358.1699 360.05156 394.21637 334.60305 C 430.26285 309.15451 453.23533 279.94894 461.80725 264.14297 A 1.8488749 1.8488749 0 0 0 459.67428 261.48513 C 438.02103 267.6694 421.14234 257.77871 414.76576 253.14525 A 1.8488749 1.8488749 0 0 0 414.69707 253.0977 C 406.21653 247.49851 401.46528 240.06699 397.87112 231.64299 C 394.27698 223.21898 391.91944 213.83508 388.27718 204.70351 A 1.8488749 1.8488749 0 0 0 388.26662 204.68237 C 384.9403 196.65273 380.44437 187.79581 374.4314 178.79441 C 362.86803 161.49011 323.43852 112.24816 249.93737 112.24976 z M 180.59045 216.06758 A 35.025219 35.025219 0 0 1 180.8388 216.08344 L 180.8388 286.07852 A 35.025219 35.025219 0 0 1 180.59045 286.11727 A 35.025219 35.025219 0 0 1 176.7173 285.50433 L 176.7173 216.68053 A 35.025219 35.025219 0 0 1 180.59045 216.06758 z M 315.78982 216.06758 A 35.025219 35.025219 0 0 1 320.01172 216.32298 A 35.025219 35.025219 0 0 1 324.17197 217.08563 A 35.025219 35.025219 0 0 1 328.21069 218.34322 A 35.025219 35.025219 0 0 1 332.06799 220.07988 A 35.025219 35.025219 0 0 1 335.68752 222.26745 A 35.025219 35.025219 0 0 1 339.01642 224.87597 A 35.025219 35.025219 0 0 1 342.00715 227.86671 A 35.025219 35.025219 0 0 1 344.61568 231.19561 A 35.025219 35.025219 0 0 1 346.80324 234.81514 A 35.025219 35.025219 0 0 1 348.53991 238.67244 A 35.025219 35.025219 0 0 1 349.7975 242.71116 A 35.025219 35.025219 0 0 1 350.56015 246.87141 A 35.025219 35.025219 0 0 1 350.81555 251.09331 A 35.025219 35.025219 0 0 1 349.10178 261.91666 A 35.025219 35.025219 0 0 1 344.12603 271.67968 A 35.025219 35.025219 0 0 1 336.37796 279.42952 A 35.025219 35.025219 0 0 1 326.61317 284.4035 A 35.025219 35.025219 0 0 1 315.78982 286.11727 A 35.025219 35.025219 0 0 1 304.96647 284.4035 A 35.025219 35.025219 0 0 1 295.20344 279.42952 A 35.025219 35.025219 0 0 1 287.45361 271.67968 A 35.025219 35.025219 0 0 1 282.47963 261.91666 A 35.025219 35.025219 0 0 1 280.76586 251.09331 A 35.025219 35.025219 0 0 1 282.47963 240.26996 A 35.025219 35.025219 0 0 1 287.45361 230.50517 A 35.025219 35.025219 0 0 1 295.20344 222.7571 A 35.025219 35.025219 0 0 1 304.96647 217.78135 A 35.025219 35.025219 0 0 1 315.78982 216.06758 z M 186.98583 216.72104 A 35.025219 35.025219 0 0 1 188.9726 217.08563 A 35.025219 35.025219 0 0 1 193.01132 218.34322 A 35.025219 35.025219 0 0 1 196.86863 220.07988 A 35.025219 35.025219 0 0 1 200.48815 222.26745 A 35.025219 35.025219 0 0 1 203.81706 224.87597 A 35.025219 35.025219 0 0 1 206.80779 227.86671 A 35.025219 35.025219 0 0 1 209.41631 231.19561 A 35.025219 35.025219 0 0 1 211.60388 234.81514 A 35.025219 35.025219 0 0 1 213.34055 238.67244 A 35.025219 35.025219 0 0 1 214.59813 242.71116 A 35.025219 35.025219 0 0 1 215.36079 246.87141 A 35.025219 35.025219 0 0 1 215.61618 251.09331 A 35.025219 35.025219 0 0 1 213.90241 261.91666 A 35.025219 35.025219 0 0 1 208.92666 271.67968 A 35.025219 35.025219 0 0 1 201.17859 279.42952 A 35.025219 35.025219 0 0 1 191.4138 284.4035 A 35.025219 35.025219 0 0 1 186.98583 285.10451 L 186.98583 216.72104 z M 165.95384 219.7241 L 165.95384 282.46076 A 35.025219 35.025219 0 0 1 160.00408 279.42952 A 35.025219 35.025219 0 0 1 152.25601 271.67968 A 35.025219 35.025219 0 0 1 147.28026 261.91666 A 35.025219 35.025219 0 0 1 145.56649 251.09331 A 35.025219 35.025219 0 0 1 147.28026 240.26996 A 35.025219 35.025219 0 0 1 152.25601 230.50517 A 35.025219 35.025219 0 0 1 160.00408 222.7571 A 35.025219 35.025219 0 0 1 165.95384 219.7241 z " /><path
       id="path10"
       style="stroke-width:2.70539;fill:#4889ea;fill-opacity:1;stroke:none;stroke-linecap:square"
       d="m 208.38714,374.03416 -13.44336,22.43164 12.70508,22.85743 26.14648,0.42578 13.44336,-22.42969 -12.70508,-22.85742 z"
       inkscape:label="bowright" /><path
       id="path10-7"
       style="stroke-width:2.70539;fill:#4889ea;fill-opacity:1;stroke:none;stroke-linecap:square"
       d="m 262.57187,373.11684 -13.44336,22.43164 12.70508,22.85743 26.14648,0.42578 13.44336,-22.42969 -12.70508,-22.85742 z"
       inkscape:label="bowleft" /><path
       id="rect9"
       style="stroke-width:2.70539;fill:#104089;stroke-linecap:square"
       d="m 233.48648,389.26755 h 30.94895 v 15.87641 h -30.94895 z"
       inkscape:label="bowtie" /><path
       id="path18"
       style="stroke-width:2.70539;fill:#4889ea;fill-opacity:1;stroke:none;stroke-linecap:square"
       inkscape:label="schnozz"
       d="M 214.45194 260.04437 A 35.025219 35.025219 0 0 1 213.90241 261.91666 A 35.025219 35.025219 0 0 1 208.92666 271.67968 A 35.025219 35.025219 0 0 1 208.63252 271.97383 C 204.19117 282.64814 198.71978 298.93328 198.71978 314.50808 C 198.71978 342.27871 231.75233 373.99334 248.56002 373.99334 C 266.84934 373.99334 298.40025 340.67574 298.40025 314.50808 C 298.40025 299.57796 293.35974 283.95611 289.00006 273.22613 A 35.025219 35.025219 0 0 1 287.45361 271.67968 A 35.025219 35.025219 0 0 1 282.47963 261.91666 A 35.025219 35.025219 0 0 1 282.18372 260.04437 L 214.45194 260.04437 z " /><path
       d="m 272.27285,305.06251 h -48.63281 c -0.004,17.44552 13.31828,29.21974 24.31641,31.5586 11.01439,-2.34233 24.31993,-14.13004 24.3164,-31.5586 z"
       style="stroke-width:2.70539;fill:#104089;fill-opacity:1;stroke:none;stroke-linecap:square"
       id="path12"
       sodipodi:nodetypes="cccc"
       inkscape:label="nose" /><path
       id="path15"
       style="fill:#4889ea;fill-opacity:1;stroke:none;stroke-width:2.70539;stroke-linecap:square"
       inkscape:label="fur"
       d="m 310.00387,181.67241 c -25.06763,0.2382 -39.37637,25.59548 -62.28401,31.44143 -22.27538,-6.52122 -36.58361,-30.93543 -61.25891,-31.24416 -28.16548,0.44837 -48.8467,23.02656 -65.4949,43.18947 -13.62105,18.28129 -29.623554,34.7524 -48.621395,47.49591 -5.381255,3.87905 -16.204346,8.35779 -3.425779,9.65383 19.678391,6.6344 41.635114,4.51507 59.610314,-4.73268 l 18.75107,-15.55955 c -1.13559,-3.49552 -1.71392,-7.148 -1.71377,-10.82335 -1.5e-4,-3.67535 0.57818,-7.32783 1.71377,-10.82335 1.13592,-3.49586 2.81505,-6.79112 4.97575,-9.76479 2.1602,-2.97319 4.77488,-5.58787 7.74807,-7.74807 1.88212,-1.1982 3.87443,-2.21381 5.94976,-3.033 v 42.4321 c 3.58772,-0.72252 7.17647,-1.43441 10.76346,-2.16467 v -43.311 c 1.27859,-0.27648 2.57167,-0.48112 3.87315,-0.61295 0.0828,0.005 0.16559,0.0103 0.24835,0.0159 v 43.0785 c 2.04854,-0.41709 4.09833,-0.82103 6.14703,-1.23645 v -41.20445 c 0.66562,0.1024 1.32816,0.22398 1.98677,0.36459 1.37035,0.33745 2.71905,0.75741 4.03872,1.25759 1.31959,0.50064 2.6077,1.08059 3.85731,1.73666 1.24947,0.65562 2.45818,1.38614 3.61952,2.18757 1.16117,0.80166 2.27283,1.67275 3.32891,2.60852 1.05625,0.93576 2.05498,1.93449 2.99073,2.99074 0.93577,1.05608 1.80686,2.16774 2.60852,3.3289 0.80143,1.16134 1.53195,2.37006 2.18757,3.61953 0.65608,1.2496 1.23602,2.53772 1.73667,3.8573 0.50018,1.31967 0.92014,2.66837 1.25758,4.03872 0.33779,1.37012 0.59248,2.7594 0.76266,4.16025 0.1701,1.40087 0.25539,2.81074 0.25539,4.2219 -6e-5,0.42047 -0.008,0.84091 -0.0229,1.26111 2.2338,-0.41443 4.46478,-0.85547 6.70008,-1.25407 18.14156,0.44986 36.36383,-0.56337 54.45491,0.0986 1.3891,0.27825 2.77821,0.55661 4.1673,0.83487 -0.0542,-0.31282 -0.10407,-0.62637 -0.14971,-0.94055 -1.5e-4,-3.67535 0.57818,-7.32783 1.71377,-10.82335 1.13537,-3.49575 2.8139,-6.791 4.97398,-9.76479 2.16074,-2.97332 4.77602,-5.58801 7.74983,-7.74807 2.97313,-2.16054 6.26779,-3.83966 9.76303,-4.97575 3.49552,-1.13559 7.148,-1.71392 10.82335,-1.71377 1.41116,1e-5 2.82103,0.0853 4.2219,0.2554 1.40085,0.17018 2.79013,0.42486 4.16025,0.76265 1.37035,0.33745 2.71905,0.75741 4.03872,1.25759 1.31958,0.50064 2.6077,1.08059 3.8573,1.73666 1.24947,0.65562 2.45819,1.38614 3.61953,2.18757 1.16116,0.80166 2.27282,1.67275 3.3289,2.60852 1.05625,0.93576 2.05498,1.93449 2.99073,2.99074 0.93577,1.05608 1.80687,2.16774 2.60853,3.3289 0.80143,1.16134 1.53195,2.37006 2.18756,3.61953 0.65608,1.2496 1.23602,2.53772 1.73667,3.8573 0.50018,1.31967 0.92014,2.66837 1.25759,4.03872 0.33779,1.37012 0.59247,2.7594 0.76265,4.16025 0.17011,1.40087 0.25539,2.81074 0.2554,4.2219 1.5e-4,3.67535 -0.57818,7.32783 -1.71377,10.82335 l 4.27649,4.63228 c 17.87029,18.85832 44.80203,23.25783 69.14261,16.73612 5.6678,-1.42969 17.86075,-3.2582 6.48872,-7.54024 -29.22104,-12.41164 -38.11036,-29.94325 -52.39592,-49.51791 -16.96844,-20.52991 -37.75482,-44.15946 -66.60981,-44.5545 z"
       sodipodi:nodetypes="ccccccccccccccccccccccccccccccccccccccccccscccccccccccsccccccc" /><path
       id="path19"
       style="stroke-width:2.70539;fill:#05152e;fill-opacity:1;stroke:none;stroke-linecap:square"
       inkscape:label="glasses"
       d="M 180.59045 210.45072 C 158.16726 210.44672 139.94938 228.67238 139.94786 251.09155 C 139.94837 273.51168 158.16584 291.73262 180.59045 291.73414 C 199.55688 291.73378 216.22022 278.48644 220.14279 260.04437 L 275.93806 260.04437 C 279.80827 278.75726 296.51405 292.16002 315.61897 292.16038 C 338.05134 292.15838 356.26367 273.92583 356.2598 251.51955 C 356.26013 250.59427 356.22749 249.6686 356.16469 248.74546 C 354.71328 227.43515 336.94413 210.86774 315.61897 210.87696 C 296.16887 210.87733 280.64118 224.6587 276.84338 240.00752 L 219.68836 240.00752 C 214.76639 222.57393 198.78169 210.44286 180.59045 210.45072 z M 180.59045 216.06758 A 35.025219 35.025219 0 0 1 180.8388 216.08344 L 180.8388 286.07852 A 35.025219 35.025219 0 0 1 180.59045 286.11727 A 35.025219 35.025219 0 0 1 176.7173 285.50433 L 176.7173 216.68053 A 35.025219 35.025219 0 0 1 180.59045 216.06758 z M 315.78982 216.06758 A 35.025219 35.025219 0 0 1 320.01172 216.32298 A 35.025219 35.025219 0 0 1 324.17197 217.08563 A 35.025219 35.025219 0 0 1 328.21069 218.34322 A 35.025219 35.025219 0 0 1 332.06799 220.07988 A 35.025219 35.025219 0 0 1 335.68752 222.26745 A 35.025219 35.025219 0 0 1 339.01642 224.87597 A 35.025219 35.025219 0 0 1 342.00715 227.86671 A 35.025219 35.025219 0 0 1 344.61568 231.19561 A 35.025219 35.025219 0 0 1 346.80324 234.81514 A 35.025219 35.025219 0 0 1 348.53991 238.67244 A 35.025219 35.025219 0 0 1 349.7975 242.71116 A 35.025219 35.025219 0 0 1 350.56015 246.87141 A 35.025219 35.025219 0 0 1 350.81555 251.09331 A 35.025219 35.025219 0 0 1 349.10178 261.91666 A 35.025219 35.025219 0 0 1 344.12603 271.67968 A 35.025219 35.025219 0 0 1 336.37796 279.42952 A 35.025219 35.025219 0 0 1 326.61317 284.4035 A 35.025219 35.025219 0 0 1 315.78982 286.11727 A 35.025219 35.025219 0 0 1 304.96647 284.4035 A 35.025219 35.025219 0 0 1 295.20344 279.42952 A 35.025219 35.025219 0 0 1 287.45361 271.67968 A 35.025219 35.025219 0 0 1 282.47963 261.91666 A 35.025219 35.025219 0 0 1 280.76586 251.09331 A 35.025219 35.025219 0 0 1 282.47963 240.26996 A 35.025219 35.025219 0 0 1 287.45361 230.50517 A 35.025219 35.025219 0 0 1 295.20344 222.7571 A 35.025219 35.025219 0 0 1 304.96647 217.78135 A 35.025219 35.025219 0 0 1 315.78982 216.06758 z M 186.98583 216.72104 A 35.025219 35.025219 0 0 1 188.9726 217.08563 A 35.025219 35.025219 0 0 1 193.01132 218.34322 A 35.025219 35.025219 0 0 1 196.86863 220.07988 A 35.025219 35.025219 0 0 1 200.48815 222.26745 A 35.025219 35.025219 0 0 1 203.81706 224.87597 A 35.025219 35.025219 0 0 1 206.80779 227.86671 A 35.025219 35.025219 0 0 1 209.41631 231.19561 A 35.025219 35.025219 0 0 1 211.60388 234.81514 A 35.025219 35.025219 0 0 1 213.34055 238.67244 A 35.025219 35.025219 0 0 1 214.59813 242.71116 A 35.025219 35.025219 0 0 1 215.36079 246.87141 A 35.025219 35.025219 0 0 1 215.61618 251.09331 A 35.025219 35.025219 0 0 1 213.90241 261.91666 A 35.025219 35.025219 0 0 1 208.92666 271.67968 A 35.025219 35.025219 0 0 1 201.17859 279.42952 A 35.025219 35.025219 0 0 1 191.4138 284.4035 A 35.025219 35.025219 0 0 1 186.98583 285.10451 L 186.98583 216.72104 z M 165.95384 219.7241 L 165.95384 282.46076 A 35.025219 35.025219 0 0 1 160.00408 279.42952 A 35.025219 35.025219 0 0 1 152.25601 271.67968 A 35.025219 35.025219 0 0 1 147.28026 261.91666 A 35.025219 35.025219 0 0 1 145.56649 251.09331 A 35.025219 35.025219 0 0 1 147.28026 240.26996 A 35.025219 35.025219 0 0 1 152.25601 230.50517 A 35.025219 35.025219 0 0 1 160.00408 222.7571 A 35.025219 35.025219 0 0 1 165.95384 219.7241 z " /><path
       d="m 176.71816,216.18556 a 35.416958,35.416958 0 0 0 -0.91992,0.0664 35.416958,35.416958 0 0 0 -4.9375,1.07422 35.416958,35.416958 0 0 0 -4.73437,1.76562 35.416958,35.416958 0 0 0 -0.17188,0.0937 v 64.24609 a 35.416958,35.416958 0 0 0 0.17188,0.0937 35.416958,35.416958 0 0 0 4.73437,1.76563 35.416958,35.416958 0 0 0 4.9375,1.07422 35.416958,35.416958 0 0 0 0.91992,0.0664 z"
       style="stroke-width:2.70539;fill:#104089;fill-opacity:1;stroke:none;stroke-linecap:square"
       id="path9"
       inkscape:label="glint2" /><path
       d="m 180.83926,215.89064 v 70.83398 a 35.416958,35.416958 0 0 0 5.03906,-0.35937 35.416958,35.416958 0 0 0 1.10742,-0.24024 v -69.68554 a 35.416958,35.416958 0 0 0 -0.7832,-0.14063 35.416958,35.416958 0 0 0 -1.78125,-0.22656 35.416958,35.416958 0 0 0 -1.78906,-0.13477 35.416958,35.416958 0 0 0 -1.79297,-0.0469 z"
       style="stroke-width:2.70539;fill:#104089;fill-opacity:1;stroke:none;stroke-linecap:square"
       id="path8"
       inkscape:label="glint1" /><path
       id="path17"
       style="stroke-width:3.69738;fill:none;stroke-linecap:square;stroke-linejoin:round;fill-opacity:1"
       d="M 24.411935 23.99853 L 24.411935 474.89793 L 475.31134 474.89793 L 475.31134 23.99853 L 24.411935 23.99853 z M 180.59045 216.06758 A 35.025219 35.025219 0 0 1 180.8388 216.08344 L 180.8388 286.07852 A 35.025219 35.025219 0 0 1 180.59045 286.11727 A 35.025219 35.025219 0 0 1 176.7173 285.50433 L 176.7173 216.68053 A 35.025219 35.025219 0 0 1 180.59045 216.06758 z M 315.78982 216.06758 A 35.025219 35.025219 0 0 1 320.01172 216.32298 A 35.025219 35.025219 0 0 1 324.17197 217.08563 A 35.025219 35.025219 0 0 1 328.21069 218.34322 A 35.025219 35.025219 0 0 1 332.06799 220.07988 A 35.025219 35.025219 0 0 1 335.68752 222.26745 A 35.025219 35.025219 0 0 1 339.01642 224.87597 A 35.025219 35.025219 0 0 1 342.00715 227.86671 A 35.025219 35.025219 0 0 1 344.61568 231.19561 A 35.025219 35.025219 0 0 1 346.80324 234.81514 A 35.025219 35.025219 0 0 1 348.53991 238.67244 A 35.025219 35.025219 0 0 1 349.7975 242.71116 A 35.025219 35.025219 0 0 1 350.56015 246.87141 A 35.025219 35.025219 0 0 1 350.81555 251.09331 A 35.025219 35.025219 0 0 1 349.10178 261.91666 A 35.025219 35.025219 0 0 1 344.12603 271.67968 A 35.025219 35.025219 0 0 1 336.37796 279.42952 A 35.025219 35.025219 0 0 1 326.61317 284.4035 A 35.025219 35.025219 0 0 1 315.78982 286.11727 A 35.025219 35.025219 0 0 1 304.96647 284.4035 A 35.025219 35.025219 0 0 1 295.20344 279.42952 A 35.025219 35.025219 0 0 1 287.45361 271.67968 A 35.025219 35.025219 0 0 1 282.47963 261.91666 A 35.025219 35.025219 0 0 1 280.76586 251.09331 A 35.025219 35.025219 0 0 1 282.47963 240.26996 A 35.025219 35.025219 0 0 1 287.45361 230.50517 A 35.025219 35.025219 0 0 1 295.20344 222.7571 A 35.025219 35.025219 0 0 1 304.96647 217.78135 A 35.025219 35.025219 0 0 1 315.78982 216.06758 z M 186.98583 216.72104 A 35.025219 35.025219 0 0 1 188.9726 217.08563 A 35.025219 35.025219 0 0 1 193.01132 218.34322 A 35.025219 35.025219 0 0 1 196.86863 220.07988 A 35.025219 35.025219 0 0 1 200.48815 222.26745 A 35.025219 35.025219 0 0 1 203.81706 224.87597 A 35.025219 35.025219 0 0 1 206.80779 227.86671 A 35.025219 35.025219 0 0 1 209.41631 231.19561 A 35.025219 35.025219 0 0 1 211.60388 234.81514 A 35.025219 35.025219 0 0 1 213.34055 238.67244 A 35.025219 35.025219 0 0 1 214.59813 242.71116 A 35.025219 35.025219 0 0 1 215.36079 246.87141 A 35.025219 35.025219 0 0 1 215.61618 251.09331 A 35.025219 35.025219 0 0 1 213.90241 261.91666 A 35.025219 35.025219 0 0 1 208.92666 271.67968 A 35.025219 35.025219 0 0 1 201.17859 279.42952 A 35.025219 35.025219 0 0 1 191.4138 284.4035 A 35.025219 35.025219 0 0 1 186.98583 285.10451 L 186.98583 216.72104 z M 165.95384 219.7241 L 165.95384 282.46076 A 35.025219 35.025219 0 0 1 160.00408 279.42952 A 35.025219 35.025219 0 0 1 152.25601 271.67968 A 35.025219 35.025219 0 0 1 147.28026 261.91666 A 35.025219 35.025219 0 0 1 145.56649 251.09331 A 35.025219 35.025219 0 0 1 147.28026 240.26996 A 35.025219 35.025219 0 0 1 152.25601 230.50517 A 35.025219 35.025219 0 0 1 160.00408 222.7571 A 35.025219 35.025219 0 0 1 165.95384 219.7241 z "
       inkscape:label="Mask" /></g></svg>
